<svg id="Capa_1" enable-background="new 0 0 512.001 512.001" height="512" viewBox="0 0 512.001 512.001" width="512" xmlns="http://www.w3.org/2000/svg"><g><path d="m282.255 7.5h-49.733c-35.488 0-64.384 33.819-64.673 75.792-.26 37.732-4.405 75.604-18.34 98.523 63.301 23.31 152.458 23.31 215.759 0-13.935-22.919-18.08-60.791-18.34-98.523-.289-41.973-29.185-75.792-64.673-75.792z" fill="#365e7d"/><path d="m315.617 93.403c.221 36.33 3.25 72.769 12.698 98.84 12.967-2.702 25.394-6.172 36.953-10.428-13.935-22.92-18.08-60.791-18.34-98.523-.289-41.973-29.185-75.792-64.673-75.792h-31.311c35.489 0 64.384 38.33 64.673 85.903z" fill="#2b4d66"/><path d="m302.187 199.298h-89.597c-27.203 8.796-46.884 34.32-46.884 64.452v92.51c0 6.778 5.494 12.272 12.272 12.272h158.82c6.778 0 12.272-5.494 12.272-12.272v-92.51c.001-30.133-19.679-55.656-46.883-64.452z" fill="#4a80aa"/><path d="m302.187 199.298h-30.019c27.203 8.796 46.884 34.32 46.884 64.452v104.782h17.747c6.778 0 12.272-5.494 12.272-12.272v-92.51c0-30.133-19.681-55.656-46.884-64.452z" fill="#407093"/><path d="m257.389 257.8c-10.815 0-19.582-8.767-19.582-19.582v-37.967h39.164v37.967c0 10.815-8.768 19.582-19.582 19.582z" fill="#ffcbbe"/><path d="m257.389 217.885c-34.952 0-63.286-28.334-63.286-63.286v-52.49c0-1.72 1.462-3.064 3.178-2.944 29.138 2.024 61.113-1.439 77.633-12.948 1.097-.764 2.567-.695 3.582.175 9.978 8.551 21.467 14.371 38.952 12.881 1.731-.148 3.227 1.199 3.227 2.936v52.392c-.001 34.95-28.335 63.284-63.286 63.284z" fill="#ffddce"/><path d="m317.447 99.271c-10.107.862-18.203-.729-25.169-3.869v59.197c0 30.068-20.976 55.22-49.088 61.667 4.566 1.047 9.314 1.619 14.198 1.619 34.952 0 63.286-28.334 63.286-63.286v-52.392c0-1.737-1.495-3.084-3.227-2.936z" fill="#ffcbbe"/><path d="m352.029 504.5 10.238-106.888-30.223-20h-160.489l-21.82 20 10.237 106.888z" fill="#ecb780"/><path d="m320.633 416.314c10.553 0 18.813 9.089 17.807 19.594l-6.57 68.592h20.159l10.237-106.887-26.212-20h-163.695l-22.625 20 1.791 18.702h169.108z" fill="#e29375"/><path d="m395.639 397.612h-279.277c-1.811 0-3.279-1.468-3.279-3.279v-54.883h285.835v54.884c0 1.81-1.468 3.278-3.279 3.278z" fill="#e27d47"/><path d="m378.016 359.45v34.884c0 1.811-1.468 3.279-3.279 3.279h20.902c1.811 0 3.279-1.468 3.279-3.279v-34.884z" fill="#dd6938"/><path d="m346.717 312.026c-11.685 0-22.805-4.659-31.301-12.682-9.067-8.562-21.296-13.811-34.751-13.811h-49.33c-13.455 0-25.684 5.249-34.751 13.811-8.496 8.023-19.616 12.682-31.301 12.682h-58.837c-2.799 0-5.067 2.269-5.067 5.067v37.289c0 2.799 2.269 5.067 5.067 5.067h299.108c2.799 0 5.067-2.269 5.067-5.067v-37.289c0-2.799-2.269-5.067-5.067-5.067z" fill="#ecb780"/><g><path d="m405.555 312.026h-20.369c2.798 0 5.067 2.269 5.067 5.067v37.289c0 2.799-2.269 5.067-5.067 5.067h20.369c2.799 0 5.067-2.269 5.067-5.067v-37.289c0-2.798-2.269-5.067-5.067-5.067z" fill="#e29375"/></g><path d="m209.688 225.026c-5.333-5.333-5.333-13.979 0-19.312l17.863-17.863c5.333-5.333 13.979-5.333 19.312 0 5.333 5.333 5.333 13.979 0 19.312l-17.863 17.863c-5.333 5.333-13.979 5.333-19.312 0z" fill="#365e7d"/><g><path d="m230.511 151.08c4.142 0 7.5-3.357 7.5-7.5v-3.588c0-4.143-3.358-7.5-7.5-7.5s-7.5 3.357-7.5 7.5v3.588c0 4.143 3.358 7.5 7.5 7.5z"/><path d="m284.266 151.08c4.143 0 7.5-3.357 7.5-7.5v-3.588c0-4.143-3.357-7.5-7.5-7.5s-7.5 3.357-7.5 7.5v3.588c0 4.143 3.357 7.5 7.5 7.5z"/><path d="m248.501 318.026v8.965c0 4.143 3.358 7.5 7.5 7.5s7.5-3.357 7.5-7.5v-8.965c0-4.143-3.358-7.5-7.5-7.5s-7.5 3.358-7.5 7.5z"/><path d="m405.555 304.526h-10.369c-4.143 0-7.5 3.357-7.5 7.5s3.357 7.5 7.5 7.5h7.936v32.423h-294.242v-32.423h56.404c13.447 0 26.392-5.23 36.45-14.729 8.033-7.587 18.546-11.765 29.602-11.765h49.33c11.056 0 21.569 4.178 29.603 11.765 21.24 20.058 44.366 13.497 54.931 14.729 4.143 0 7.5-3.357 7.5-7.5s-3.357-7.5-7.5-7.5h-8.628v-40.777c0-25.8-12.996-49.123-33.74-62.786 16.141-2.975 31.232-7.029 45.029-12.109 2.104-.774 3.75-2.449 4.489-4.566.738-2.116.492-4.452-.673-6.368-11.139-18.321-16.941-50.176-17.248-94.679-.152-22.06-7.586-42.819-20.933-58.454-13.645-15.984-31.842-24.787-51.241-24.787h-49.733c-16.56 0-32.74 6.684-45.56 18.82-3.008 2.848-3.138 7.595-.29 10.603s7.594 3.139 10.603.29c10.167-9.625 22.356-14.713 35.247-14.713h49.733c31.266 0 56.913 30.659 57.173 68.344.29 42.151 5.244 73.137 15.107 94.253-10.546 3.43-21.849 6.254-33.77 8.479 4.732-9.488 7.409-20.173 7.409-31.476v-52.392c0-2.915-1.231-5.718-3.379-7.689-2.156-1.979-5.066-2.965-7.984-2.72-13.229 1.127-22.916-2.089-33.434-11.102-3.604-3.092-8.848-3.353-12.751-.636-13.225 9.214-41.808 13.778-72.826 11.62-2.89-.196-5.762.815-7.878 2.791-2.109 1.968-3.319 4.751-3.319 7.636v52.492c0 11.001 2.596 21.776 7.41 31.476-11.921-2.224-23.225-5.049-33.771-8.479 9.863-21.116 14.817-52.102 15.107-94.253.075-10.902 2.219-21.331 6.372-30.997 1.635-3.806-.124-8.217-3.93-9.852-3.804-1.636-8.216.124-9.852 3.93-4.948 11.515-7.502 23.901-7.591 36.815-.306 44.503-6.109 76.357-17.249 94.679-1.165 1.916-1.411 4.252-.672 6.368.739 2.117 2.386 3.792 4.489 4.566 13.797 5.08 28.889 9.134 45.03 12.109-19.89 13.101-32.656 35.082-33.673 59.614l-25.25 22.849c-4.192 3.794-6.596 9.212-6.596 14.864v6.236h-19.981c-6.929 0-12.567 5.638-12.567 12.567v37.289c0 6.637 5.177 12.076 11.703 12.523v27.428c0 5.943 4.835 10.778 10.779 10.778h26.557l3.566 37.231c.395 4.123 4.054 7.146 8.181 6.751 4.123-.395 7.146-4.058 6.75-8.181l-3.429-35.802h196.027l-9.45 98.673c-.395 4.123 2.628 7.786 6.751 8.181.243.023.484.035.724.035 3.82 0 7.085-2.906 7.457-6.786l9.587-100.103h26.557c5.943 0 10.778-4.835 10.778-10.778v-27.428c6.526-.447 11.703-5.885 11.703-12.523v-37.289c.001-6.927-5.636-12.565-12.565-12.565zm-63.984-40.777v40.409c-7.734-1.097-15.05-4.644-21.004-10.267-10.83-10.227-25-15.858-39.901-15.858h-49.33c-14.901 0-29.071 5.632-39.9 15.858-5.236 4.945-11.528 8.278-18.229 9.758v-36.355l36.552-33.076c3.003 1.524 6.292 2.298 9.585 2.298 3.807 0 7.604-1.042 10.963-3.078v4.78c0 14.933 12.149 27.082 27.083 27.082 14.933 0 27.082-12.149 27.082-27.082v-18.229c7.139-2.968 13.683-7.077 19.421-12.091 22.702 9.137 37.678 31.067 37.678 55.851zm-100.012-70.596c2.4 2.4 2.4 6.307 0 8.706l-17.863 17.863c-2.4 2.399-6.306 2.401-8.707 0-2.4-2.4-2.399-6.306 0-8.705l17.864-17.864c2.403-2.401 6.297-2.409 8.706 0zm3.747 31.195c3.975.684 8.015 1.037 12.083 1.037 4.12 0 8.153-.374 12.082-1.053v13.886c0 6.662-5.42 12.082-12.082 12.082s-12.083-5.42-12.083-12.082zm-43.703-117.415c14.151.691 28.003.096 40.336-1.751 14.245-2.133 25.767-5.799 34.318-10.913 8.25 6.551 19.681 13.027 36.917 12.726v47.605c0 30.76-25.025 55.785-55.785 55.785-1.118 0-2.233-.041-3.344-.107 5.374-7.078 5.704-16.778.972-24.171 6.674.763 12.751-1.354 18.091-5.424 3.295-2.51 3.93-7.216 1.419-10.511-2.511-3.294-7.217-3.933-10.511-1.419-4.501 3.427-8.412 3.377-13.503-.183-3.394-2.373-8.071-1.546-10.444 1.851-1.273 1.821-1.617 4.008-1.145 6.013-6.44-.514-12.37 1.808-16.675 6.113l-7.721 7.721c-8.272-9.961-12.924-22.609-12.924-35.668v-47.667zm-3.381 107.919c-.068 2.805.408 5.618 1.446 8.266l-23.186 20.982c4.037-11.76 11.627-21.985 21.74-29.248zm-56.794 83.438c0-1.423.605-2.787 1.661-3.742l15.118-13.68v23.659h-16.778v-6.237zm249.99 91.822h-270.835v-23.162h270.835z"/><path d="m164.288 470.901c-.395-4.124-4.056-7.149-8.181-6.751-4.124.395-7.146 4.058-6.751 8.181l3.149 32.885c.372 3.88 3.637 6.785 7.457 6.785.239 0 .481-.012.724-.035 4.124-.396 7.146-4.058 6.75-8.182z"/></g></g></svg>